<svg xmlns="http://www.w3.org/2000/svg" width="15" height="23.457" viewBox="0 0 15 23.457">
  <path id="Caminho_5503" data-name="Caminho 5503" d="M151.334,977.058a7.515,7.515,0,0,0-7.5,7.5,6.624,6.624,0,0,0,.231,1.784,7,7,0,0,0,1.057,2.379c.1.2.231.4.364.627.165.265.3.528.462.76a5.044,5.044,0,0,1,1.057,3.007v3.106a1.565,1.565,0,0,0,1.322,1.552,3.019,3.019,0,0,0,6.013,0,1.565,1.565,0,0,0,1.322-1.552v-3.106a5.044,5.044,0,0,1,1.057-3.007c.166-.231.3-.495.462-.76.132-.231.265-.43.364-.627a7,7,0,0,0,1.058-2.379,6.624,6.624,0,0,0,.231-1.784A7.516,7.516,0,0,0,151.334,977.058Zm0,22.169c-.364,0-1.289,0-1.653-1.388h3.3C152.622,999.227,151.7,999.227,151.334,999.227Zm3.006-2.974a.26.26,0,0,1-.264.265h-5.485a.261.261,0,0,1-.265-.265v-1.024h6.013Zm-.033-3.106v.76H148.36v-.76a1.723,1.723,0,0,0-.034-.43h6.013A1.769,1.769,0,0,0,154.308,993.148Zm2.94-7.1a6.279,6.279,0,0,1-.892,2.015c-.1.165-.231.4-.364.627-.131.265-.3.5-.429.727a8.347,8.347,0,0,0-.992,1.949H148.1a8.343,8.343,0,0,0-.991-1.949c-.132-.231-.3-.462-.43-.727-.132-.231-.265-.462-.364-.627a6.3,6.3,0,0,1-.892-2.015,5.743,5.743,0,0,1-.2-1.487,6.112,6.112,0,1,1,12.224,0A5.744,5.744,0,0,1,157.248,986.045Z" transform="translate(-143.834 -977.058)" fill="#9153f0"/>
</svg>
