<svg xmlns="http://www.w3.org/2000/svg" width="17.905" height="28" viewBox="0 0 17.905 28">
  <path id="Caminho_4667" data-name="Caminho 4667" d="M152.786,977.058a8.971,8.971,0,0,0-8.952,8.952,7.907,7.907,0,0,0,.276,2.13,8.356,8.356,0,0,0,1.262,2.839c.119.236.276.473.434.749.2.316.355.631.552.907a6.021,6.021,0,0,1,1.262,3.589v3.707a1.868,1.868,0,0,0,1.578,1.853c.395,2.012,1.578,3.273,3.589,3.273s3.194-1.262,3.588-3.273a1.868,1.868,0,0,0,1.578-1.853v-3.707a6.021,6.021,0,0,1,1.262-3.589c.2-.276.355-.591.552-.907.158-.276.316-.513.434-.749a8.358,8.358,0,0,0,1.263-2.839,7.907,7.907,0,0,0,.276-2.13A8.971,8.971,0,0,0,152.786,977.058Zm0,26.462c-.434,0-1.539,0-1.973-1.657h3.944C154.324,1003.52,153.22,1003.52,152.786,1003.52Zm3.588-3.549a.311.311,0,0,1-.315.316h-6.547a.312.312,0,0,1-.316-.316v-1.223h7.178Zm-.039-3.707v.907h-7.1v-.907a2.057,2.057,0,0,0-.04-.513h7.178A2.112,2.112,0,0,0,156.336,996.264Zm3.509-8.479a7.5,7.5,0,0,1-1.065,2.406c-.118.2-.276.473-.434.749-.157.316-.355.592-.512.868a9.964,9.964,0,0,0-1.184,2.327h-7.73a9.959,9.959,0,0,0-1.183-2.327c-.158-.276-.355-.552-.513-.868-.158-.276-.316-.552-.434-.749a7.519,7.519,0,0,1-1.065-2.406,6.856,6.856,0,0,1-.236-1.775,7.3,7.3,0,1,1,14.591,0A6.857,6.857,0,0,1,159.845,987.785Z" transform="translate(-143.834 -977.058)" fill="#ffe959"/>
</svg>
