<svg xmlns="http://www.w3.org/2000/svg" width="67.963" height="45" viewBox="0 0 67.963 45">
  <g id="Cantu_símbolo" data-name="Cantu símbolo" transform="translate(0)">
    <path id="Caminho_4512" data-name="Caminho 4512" d="M197.8,4.9H190.78a4.1,4.1,0,0,0-3.848,2.631l-2.119,5.653,0,0L183.7,16.149H164.6c-9.542,0-18.067,7.524-18.906,16.866-.838,9.324,6.2,16.884,15.726,16.884h6.825a4.019,4.019,0,0,0,3.775-2.581l2.188-5.839a4.408,4.408,0,0,1,4.141-2.83h16.266c9.542,0,18.067-7.524,18.906-16.866C214.359,12.459,207.317,4.9,197.8,4.9Zm-1.654,22.5H182.347A4.1,4.1,0,0,0,178.5,30.03l-2.117,5.648h0l-.087.232-1.027,2.739H162.928a5.683,5.683,0,0,1-5.744-5.74,5.765,5.765,0,0,1,5.857-5.51h16.444l3.156-8.42h0a4.4,4.4,0,0,1,4.137-2.831h9.367a5.683,5.683,0,0,1,5.835,4.834A5.766,5.766,0,0,1,196.142,27.4Z" transform="translate(-145.626 -4.899)" fill="#fff"/>
  </g>
</svg>
