<svg xmlns="http://www.w3.org/2000/svg" width="36.964" height="13.471" viewBox="0 0 36.964 13.471">
  <g id="Grupo_6544" data-name="Grupo 6544" transform="translate(0 2)">
    <g id="Grupo_6543" data-name="Grupo 6543" transform="translate(0 -2)">
      <g id="Grupo_6541" data-name="Grupo 6541">
        <path id="Caminho_5081" data-name="Caminho 5081" d="M502.13,540.13H466.386a.364.364,0,0,1-.364-.364v-.984a.364.364,0,0,1,.364-.364h33.677l-4.487-4.487a.364.364,0,0,1,0-.515l.7-.7a.364.364,0,0,1,.515,0l5.948,5.948a.856.856,0,0,1-.605,1.461Z" transform="translate(-466.022 -532.615)" fill="#9153f0"/>
      </g>
      <g id="Grupo_6542" data-name="Grupo 6542" transform="translate(29.297 8.463)">
        <rect id="Retângulo_2209" data-name="Retângulo 2209" width="5.37" height="1.712" rx="0.538" transform="translate(0 3.798) rotate(-45.004)" fill="#9153f0"/>
      </g>
    </g>
  </g>
</svg>
