<svg id="seta" xmlns="http://www.w3.org/2000/svg" width="7.917" height="8.032" viewBox="0 0 7.917 8.032">
  <g id="Grupo_6061" data-name="Grupo 6061">
    <g id="Grupo_6059" data-name="Grupo 6059">
      <path id="Caminho_4513" data-name="Caminho 4513" d="M-14.757,533.231h-7.232a.212.212,0,0,1-.2-.218v-.588a.211.211,0,0,1,.2-.218h6.074l-2.514-2.683a.229.229,0,0,1,0-.308l.39-.416a.2.2,0,0,1,.288,0l3.333,3.556a.539.539,0,0,1,.1.558A.48.48,0,0,1-14.757,533.231Z" transform="translate(22.194 -528.736)" fill="#ffe959"/>
    </g>
    <g id="Grupo_6060" data-name="Grupo 6060" transform="translate(3.621 5.06)">
      <rect id="Retângulo_1974" data-name="Retângulo 1974" width="3.11" height="0.992" rx="0.319" transform="translate(0 2.271) rotate(-45.004)" fill="#ffe959"/>
    </g>
  </g>
</svg>
