<svg xmlns="http://www.w3.org/2000/svg" width="27.034" height="27.172" viewBox="0 0 27.034 27.172">
  <g id="Grupo_6304" data-name="Grupo 6304" transform="translate(-969 -7204)">
    <g id="Grupo_6302" data-name="Grupo 6302" transform="translate(969 7204)">
      <path id="Caminho_4513" data-name="Caminho 4513" d="M3.2,543.938h-24.7a.719.719,0,0,1-.7-.737v-1.99a.718.718,0,0,1,.7-.737H-.752L-9.337,531.4a.769.769,0,0,1,0-1.041L-8,528.953a.669.669,0,0,1,.985,0L4.362,540.98a1.81,1.81,0,0,1,.354,1.889A1.64,1.64,0,0,1,3.2,543.938Z" transform="translate(22.194 -528.737)" fill="#ffe959"/>
    </g>
    <rect id="Retângulo_1974" data-name="Retângulo 1974" width="10.565" height="3.362" rx="0.319" transform="translate(981.366 7228.795) rotate(-45.004)" fill="#ffe959"/>
  </g>
</svg>
